<svg id="Layer_1" data-name="Layer 1" xmlns="http://www.w3.org/2000/svg" viewBox="0 0 1293.93 469"><defs><style>.cls-1{fill:#87a481;}.cls-2{fill:#2c4829;}</style></defs><path class="cls-1" d="M279.43,194.24C144.31,59.12-67.82,271.25,67.3,406.37L279.43,618.5l56.07-56.06L302.73,532.1l-5.24-7.86a34.1,34.1,0,0,1-9.17-10.49c-8.16-14.77.09-28.14-7.87-39.32-2.17-3.05-6.21-6.87-14.42-9.18-7.12.2-14.56.21-22.28,0-13.06-.35-25.32-1.3-36.7-2.62a70.2,70.2,0,0,1-21-13.1c-5.08-4.62-9-8.22-11.8-14.42s-1.46-8.29-5.24-15.73a83.07,83.07,0,0,0-6.55-10.49c-4.75-6.44-6.44-6.77-6.56-9.17-.31-6.8,12.93-12.47,14.42-13.11,5.43-2.32,7.14-1.68,18.35-3.93,10.08-2,8.93-2.58,21-5.24,13.58-3,15.67-2.43,22.29-5.25,4.69-2,8.95-3.81,13.1-7.86,7.1-6.92,5.26-11.95,13.11-22.28a41.59,41.59,0,0,1,10.49-10.49c7.27-4.86,15.14-6.31,23.59-7.86,4.64-.86,8.18-1.22,9.17-1.31,31.26-3.09,41.59,2,53.09-4.59,6.2-3.53,4.71-5.86,19-25.56a342.46,342.46,0,0,1,21.63-26.87,87.25,87.25,0,0,1,13.76,81.92,118,118,0,0,1,39.33,87.82L455,442.9l36.52-36.53C629.42,268.52,417.29,56.38,279.43,194.24Z" transform="translate(-24 -149.5)"/><path class="cls-2" d="M585.41,300.36c0-9.69-.17-18-.68-25.67h13.09L598.5,291H599c3.74-11.05,12.92-18,23-18a32.26,32.26,0,0,1,4.08.33v14.11a23.29,23.29,0,0,0-5.1-.34c-10.54,0-18,7.82-20.06,19a44.76,44.76,0,0,0-.51,7V357h-15Z" transform="translate(-24 -149.5)"/><path class="cls-2" d="M647.63,318.55c.34,20.23,13.09,28.56,28.22,28.56,10.71,0,17.34-1.87,22.78-4.25l2.72,10.71c-5.27,2.38-14.45,5.27-27.54,5.27-25.33,0-40.46-16.83-40.46-41.65S648,273,671.94,273c27,0,34,23.45,34,38.58a36.47,36.47,0,0,1-.51,7Zm43.86-10.71c.17-9.35-3.91-24.13-20.74-24.13-15.3,0-21.76,13.76-23,24.13Z" transform="translate(-24 -149.5)"/><path class="cls-2" d="M726,357V286.08H714.61V274.69H726v-3.9c0-11.56,2.72-22.1,9.52-28.73,5.61-5.44,13.09-7.65,20.06-7.65a34,34,0,0,1,12.75,2.38l-2,11.56a21.76,21.76,0,0,0-9.52-1.87c-12.75,0-16,11-16,23.79v4.42h19.89v11.39H740.79V357Z" transform="translate(-24 -149.5)"/><path class="cls-2" d="M843,334.36c0,8.67.17,16.15.68,22.61H830.38l-.85-13.43h-.34a30.73,30.73,0,0,1-27.2,15.3c-12.92,0-28.39-7.31-28.39-36V274.69h15v45.39c0,15.64,4.93,26.35,18.36,26.35,10,0,17-7,19.72-13.77A20.51,20.51,0,0,0,828,325V274.69h15Z" transform="translate(-24 -149.5)"/><path class="cls-2" d="M938.16,344.9c0,19-3.91,30.43-11.73,37.74-8.16,7.31-19.72,9.86-30.09,9.86-9.86,0-20.74-2.38-27.37-6.8l3.74-11.56c5.44,3.57,13.94,6.63,24.14,6.63,15.3,0,26.52-8,26.52-28.9v-9H923c-4.42,7.65-13.43,13.77-26.18,13.77-20.4,0-35-17.34-35-40.12,0-27.88,18.19-43.51,37.23-43.51,14.28,0,21.93,7.31,25.67,14.1h.34l.51-12.41h13.25c-.5,5.79-.67,12.58-.67,22.44Zm-15-37.74a19.63,19.63,0,0,0-.85-6.63c-2.72-8.84-9.86-16-20.91-16-14.28,0-24.48,12.07-24.48,31.11,0,16.15,8.33,29.58,24.31,29.58A21.56,21.56,0,0,0,922,329.94a26,26,0,0,0,1.19-8Z" transform="translate(-24 -149.5)"/><path class="cls-2" d="M978.44,251.58c0,5.1-3.56,9.18-9.52,9.18-5.44,0-9-4.08-9-9.18a9.11,9.11,0,0,1,9.34-9.35A9,9,0,0,1,978.44,251.58ZM961.79,357V274.69h15V357Z" transform="translate(-24 -149.5)"/><path class="cls-2" d="M585.41,376.27h15V497h-15Z" transform="translate(-24 -149.5)"/><path class="cls-2" d="M683.33,477.25A138.05,138.05,0,0,0,684.52,497H671.09L669.9,486.6h-.51c-4.59,6.46-13.43,12.24-25.16,12.24-16.66,0-25.16-11.73-25.16-23.63,0-19.89,17.68-30.77,49.47-30.6v-1.7c0-6.63-1.87-19-18.7-18.87-7.82,0-15.81,2.21-21.59,6.12l-3.4-10c6.8-4.25,16.83-7.14,27.2-7.14,25.16,0,31.28,17.17,31.28,33.49ZM668.88,455c-16.32-.34-34.85,2.55-34.85,18.53,0,9.86,6.46,14.28,13.94,14.28,10.88,0,17.85-6.8,20.23-13.77a16.89,16.89,0,0,0,.68-4.76Z" transform="translate(-24 -149.5)"/><path class="cls-2" d="M813.88,484.9c0,19-3.91,30.43-11.72,37.74-8.16,7.31-19.72,9.86-30.09,9.86-9.86,0-20.74-2.38-27.37-6.8l3.74-11.56c5.44,3.57,13.94,6.63,24.14,6.63,15.3,0,26.51-8,26.51-28.9v-9h-.34c-4.42,7.65-13.42,13.77-26.17,13.77-20.4,0-35-17.34-35-40.12,0-27.88,18.19-43.52,37.23-43.52,14.28,0,21.92,7.31,25.67,14.11h.33l.51-12.41h13.26c-.51,5.78-.68,12.58-.68,22.44Zm-15-37.74a19.9,19.9,0,0,0-.84-6.63c-2.72-8.84-9.87-16-20.91-16-14.28,0-24.48,12.07-24.48,31.11,0,16.15,8.33,29.58,24.31,29.58a21.58,21.58,0,0,0,20.74-15.3,26.32,26.32,0,0,0,1.18-8Z" transform="translate(-24 -149.5)"/><path class="cls-2" d="M896.33,477.25A138.05,138.05,0,0,0,897.52,497H884.09L882.9,486.6h-.51c-4.59,6.46-13.43,12.24-25.16,12.24-16.66,0-25.16-11.73-25.16-23.63,0-19.89,17.68-30.77,49.47-30.6v-1.7c0-6.63-1.87-19-18.7-18.87-7.82,0-15.81,2.21-21.59,6.12l-3.4-10c6.8-4.25,16.83-7.14,27.2-7.14,25.16,0,31.28,17.17,31.28,33.49ZM881.88,455c-16.32-.34-34.85,2.55-34.85,18.53,0,9.86,6.46,14.28,13.94,14.28,10.88,0,17.85-6.8,20.23-13.77a16.89,16.89,0,0,0,.68-4.76Z" transform="translate(-24 -149.5)"/><path class="cls-2" d="M920.47,440.36c0-9.69-.17-18-.68-25.67h13.09l.68,16.32h.51C937.81,420,947,413,957,413a30.45,30.45,0,0,1,4.08.34v14.11a23.29,23.29,0,0,0-5.1-.34c-10.54,0-18,7.82-20.06,19a44.76,44.76,0,0,0-.51,7V497h-15Z" transform="translate(-24 -149.5)"/><path class="cls-2" d="M976.74,440.36c0-9.69-.17-18-.68-25.67h13.09l.68,16.32h.51c3.74-11.05,12.92-18,22.95-18a30.45,30.45,0,0,1,4.08.34v14.11a23.29,23.29,0,0,0-5.1-.34c-10.54,0-18,7.82-20.06,19a44.76,44.76,0,0,0-.51,7V497h-15Z" transform="translate(-24 -149.5)"/><path class="cls-2" d="M1105.09,455.15c0,30.43-21.25,43.69-41,43.69-22.1,0-39.44-16.32-39.44-42.33,0-27.37,18.19-43.52,40.8-43.52C1089.11,413,1105.09,430.16,1105.09,455.15ZM1040,456c0,18,10.2,31.62,24.82,31.62,14.28,0,25-13.43,25-32,0-13.94-7-31.45-24.65-31.45C1047.63,424.21,1040,440.53,1040,456Z" transform="translate(-24 -149.5)"/><path class="cls-2" d="M1142,395v19.72h21.42v11.39H1142v44.37c0,10.2,2.89,16,11.22,16a27.93,27.93,0,0,0,8.67-1l.68,11.39a40.78,40.78,0,0,1-13.26,2c-7,0-12.58-2.38-16.15-6.29-4.08-4.59-5.78-11.9-5.78-21.59V426.08h-12.75V414.69h12.75v-15.3Z" transform="translate(-24 -149.5)"/><path class="cls-2" d="M1187.2,414.69l11.73,17.69c3.23,4.58,5.78,8.66,8.5,13.25h.34c2.72-4.76,5.44-9,8.33-13.43l11.39-17.51h16.32l-28,39.78,28.73,42.5h-16.83l-12.24-18.53c-3.23-4.76-6-9.35-8.84-14.28h-.34c-2.72,4.93-5.44,9.35-8.67,14.28L1185.67,497h-16.49l29.24-42-27.88-40.29Z" transform="translate(-24 -149.5)"/><path class="cls-2" d="M1316.74,477.25a138.05,138.05,0,0,0,1.19,19.72H1304.5l-1.19-10.37h-.51c-4.59,6.46-13.43,12.24-25.16,12.24-16.66,0-25.16-11.73-25.16-23.63,0-19.89,17.68-30.77,49.47-30.6v-1.7c0-6.63-1.87-19-18.7-18.87-7.82,0-15.81,2.21-21.59,6.12l-3.4-10c6.8-4.25,16.83-7.14,27.2-7.14,25.16,0,31.28,17.17,31.28,33.49ZM1302.29,455c-16.32-.34-34.85,2.55-34.85,18.53,0,9.86,6.46,14.28,13.94,14.28,10.88,0,17.85-6.8,20.23-13.77a16.89,16.89,0,0,0,.68-4.76Z" transform="translate(-24 -149.5)"/></svg>