<?xml version="1.0" encoding="utf-8"?>
<!-- Generator: Adobe Illustrator 26.2.1, SVG Export Plug-In . SVG Version: 6.00 Build 0)  -->
<svg version="1.1" id="Layer_1" xmlns="http://www.w3.org/2000/svg" xmlns:xlink="http://www.w3.org/1999/xlink" x="0px" y="0px"
	 viewBox="0 0 1293.9 469" style="enable-background:new 0 0 1293.9 469;" xml:space="preserve">
<style type="text/css">
	.st0{fill:#87A481;}
	.st1{fill:#2C4829;}
	.st2{fill:#2C4829;stroke:#2C4829;stroke-width:5;stroke-miterlimit:10;}
</style>
<path class="st0" d="M255.4,44.7C120.3-90.4-91.8,121.8,43.3,256.9L255.4,469l56.1-56.1l-32.8-30.3l-5.2-7.9
	c-3.7-2.8-6.9-6.4-9.2-10.5c-8.2-14.8,0.1-28.1-7.9-39.3c-2.2-3-6.2-6.9-14.4-9.2c-7.1,0.2-14.6,0.2-22.3,0
	c-13.1-0.4-25.3-1.3-36.7-2.6c-7.7-3.1-14.8-7.5-21-13.1c-5.1-4.6-9-8.2-11.8-14.4s-1.5-8.3-5.2-15.7c-1.9-3.7-4.1-7.2-6.6-10.5
	c-4.8-6.4-6.4-6.8-6.6-9.2c-0.3-6.8,12.9-12.5,14.4-13.1c5.4-2.3,7.1-1.7,18.4-3.9c10.1-2,8.9-2.6,21-5.2c13.6-3,15.7-2.4,22.3-5.2
	c4.7-2,8.9-3.8,13.1-7.9c7.1-6.9,5.3-12,13.1-22.3c2.8-4.1,6.4-7.7,10.5-10.5c7.3-4.9,15.1-6.3,23.6-7.9c4.6-0.9,8.2-1.2,9.2-1.3
	c31.3-3.1,41.6,2,53.1-4.6c6.2-3.5,4.7-5.9,19-25.6c6.8-9.3,14-18.3,21.6-26.9c18.1,23.2,23.3,54,13.8,81.9
	c25,22.4,39.3,54.3,39.3,87.8l6.8,7.8l36.5-36.5C605.4,119,393.3-93.1,255.4,44.7z"/>
<path class="st1" d="M561.4,150.9c0-9.7-0.2-18-0.7-25.7h13.1l0.7,16.3h0.5c3.7-11,12.9-18,23-18c1.4,0,2.7,0.1,4.1,0.3v14.1
	c-1.7-0.3-3.4-0.4-5.1-0.3c-10.5,0-18,7.8-20.1,19c-0.4,2.3-0.5,4.7-0.5,7v43.9h-15L561.4,150.9z"/>
<path class="st1" d="M623.6,169c0.3,20.2,13.1,28.6,28.2,28.6c10.7,0,17.3-1.9,22.8-4.2l2.7,10.7c-5.3,2.4-14.5,5.3-27.5,5.3
	c-25.3,0-40.5-16.8-40.5-41.6s14.7-44.2,38.6-44.2c27,0,34,23.5,34,38.6c0.1,2.3-0.1,4.7-0.5,7L623.6,169z M667.5,158.3
	c0.2-9.4-3.9-24.1-20.7-24.1c-15.3,0-21.8,13.8-23,24.1H667.5z"/>
<path class="st1" d="M702,207.5v-70.9h-11.4v-11.4H702v-3.9c0-11.6,2.7-22.1,9.5-28.7c5.6-5.4,13.1-7.6,20.1-7.6
	c4.4,0,8.7,0.8,12.8,2.4l-2,11.6c-3-1.3-6.2-2-9.5-1.9c-12.8,0-16,11-16,23.8v4.4h19.9v11.4h-19.9v70.9H702z"/>
<path class="st1" d="M819,184.9c0,8.7,0.2,16.1,0.7,22.6h-13.3l-0.8-13.4h-0.3c-5.6,9.7-16,15.5-27.2,15.3c-12.9,0-28.4-7.3-28.4-36
	v-48.1h15v45.4c0,15.6,4.9,26.4,18.4,26.4c10,0,17-7,19.7-13.8c0.9-2.4,1.4-5,1.3-7.7v-50.3h15V184.9z"/>
<path class="st1" d="M914.2,195.4c0,19-3.9,30.4-11.7,37.7c-8.2,7.3-19.7,9.9-30.1,9.9c-9.9,0-20.7-2.4-27.4-6.8l3.7-11.6
	c5.4,3.6,13.9,6.6,24.1,6.6c15.3,0,26.5-8,26.5-28.9v-9H899c-4.4,7.6-13.4,13.8-26.2,13.8c-20.4,0-35-17.3-35-40.1
	c0-27.9,18.2-43.5,37.2-43.5c14.3,0,21.9,7.3,25.7,14.1h0.3l0.5-12.4h13.2c-0.5,5.8-0.7,12.6-0.7,22.4L914.2,195.4z M899.2,157.7
	c0.1-2.2-0.2-4.5-0.8-6.6c-2.7-8.8-9.9-16-20.9-16c-14.3,0-24.5,12.1-24.5,31.1c0,16.1,8.3,29.6,24.3,29.6c9.5,0.1,18-6.2,20.8-15.3
	c0.8-2.6,1.2-5.3,1.2-8L899.2,157.7z"/>
<path class="st1" d="M954.4,102.1c0,5.1-3.6,9.2-9.5,9.2c-5.4,0-9-4.1-9-9.2c-0.1-5,3.8-9.2,8.9-9.3c0.2,0,0.3,0,0.5,0
	c5-0.1,9.1,3.8,9.2,8.8C954.4,101.7,954.4,101.9,954.4,102.1z M937.8,207.5v-82.3h15v82.3H937.8z"/>
<path class="st2" d="M561.4,226.8h15v120.7h-15V226.8z"/>
<path class="st2" d="M659.3,327.8c-0.1,6.6,0.3,13.2,1.2,19.8h-13.4l-1.2-10.4h-0.5c-4.6,6.5-13.4,12.2-25.2,12.2
	c-16.7,0-25.2-11.7-25.2-23.6c0-19.9,17.7-30.8,49.5-30.6v-1.7c0-6.6-1.9-19-18.7-18.9c-7.8,0-15.8,2.2-21.6,6.1l-3.4-10
	c6.8-4.2,16.8-7.1,27.2-7.1c25.2,0,31.3,17.2,31.3,33.5V327.8z M644.9,305.5C628.6,305.2,610,308,610,324c0,9.9,6.5,14.3,13.9,14.3
	c10.9,0,17.8-6.8,20.2-13.8c0.5-1.5,0.7-3.1,0.7-4.8V305.5z"/>
<path class="st2" d="M789.9,335.4c0,19-3.9,30.4-11.7,37.7c-8.2,7.3-19.7,9.9-30.1,9.9c-9.9,0-20.7-2.4-27.4-6.8l3.7-11.6
	c5.4,3.6,13.9,6.6,24.1,6.6c15.3,0,26.5-8,26.5-28.9v-9h-0.3c-4.4,7.6-13.4,13.8-26.2,13.8c-20.4,0-35-17.3-35-40.1
	c0-27.9,18.2-43.5,37.2-43.5c14.3,0,21.9,7.3,25.7,14.1h0.3l0.5-12.4h13.3c-0.5,5.8-0.7,12.6-0.7,22.4L789.9,335.4z M774.9,297.7
	c0.1-2.2-0.2-4.5-0.8-6.6c-2.7-8.8-9.9-16-20.9-16c-14.3,0-24.5,12.1-24.5,31.1c0,16.1,8.3,29.6,24.3,29.6c9.5,0,18-6.2,20.7-15.3
	c0.8-2.6,1.2-5.3,1.2-8V297.7z"/>
<path class="st2" d="M872.3,327.8c-0.1,6.6,0.3,13.2,1.2,19.8h-13.4l-1.2-10.4h-0.5c-4.6,6.5-13.4,12.2-25.2,12.2
	c-16.7,0-25.2-11.7-25.2-23.6c0-19.9,17.7-30.8,49.5-30.6v-1.7c0-6.6-1.9-19-18.7-18.9c-7.8,0-15.8,2.2-21.6,6.1l-3.4-10
	c6.8-4.2,16.8-7.1,27.2-7.1c25.2,0,31.3,17.2,31.3,33.5V327.8z M857.9,305.5C841.6,305.2,823,308,823,324c0,9.9,6.5,14.3,13.9,14.3
	c10.9,0,17.8-6.8,20.2-13.8c0.5-1.5,0.7-3.1,0.7-4.8V305.5z"/>
<path class="st2" d="M896.5,290.9c0-9.7-0.2-18-0.7-25.7h13.1l0.7,16.3h0.5c3.7-11,12.9-18,22.9-18c1.4,0,2.7,0.1,4.1,0.3v14.1
	c-1.7-0.3-3.4-0.4-5.1-0.3c-10.5,0-18,7.8-20.1,19c-0.4,2.3-0.5,4.7-0.5,7v43.9h-15L896.5,290.9z"/>
<path class="st2" d="M952.7,290.9c0-9.7-0.2-18-0.7-25.7h13.1l0.7,16.3h0.5c3.7-11,12.9-18,23-18c1.4,0,2.7,0.1,4.1,0.3V278
	c-1.7-0.3-3.4-0.4-5.1-0.3c-10.5,0-18,7.8-20.1,19c-0.4,2.3-0.5,4.7-0.5,7v43.9h-15L952.7,290.9z"/>
<path class="st2" d="M1081.1,305.6c0,30.4-21.2,43.7-41,43.7c-22.1,0-39.4-16.3-39.4-42.3c0-27.4,18.2-43.5,40.8-43.5
	C1065.1,263.5,1081.1,280.7,1081.1,305.6z M1016,306.5c0,18,10.2,31.6,24.8,31.6c14.3,0,25-13.4,25-32c0-13.9-7-31.5-24.7-31.5
	C1023.6,274.7,1016,291,1016,306.5z"/>
<path class="st2" d="M1118,245.5v19.7h21.4v11.4H1118V321c0,10.2,2.9,16,11.2,16c2.9,0.1,5.9-0.2,8.7-1l0.7,11.4
	c-4.3,1.4-8.8,2.1-13.3,2c-7,0-12.6-2.4-16.2-6.3c-4.1-4.6-5.8-11.9-5.8-21.6v-44.9h-12.8v-11.4h12.8v-15.3L1118,245.5z"/>
<path class="st2" d="M1163.2,265.2l11.7,17.7c3.2,4.6,5.8,8.7,8.5,13.2h0.3c2.7-4.8,5.4-9,8.3-13.4l11.4-17.5h16.3l-28,39.8
	l28.7,42.5h-16.8l-12.2-18.5c-3.2-4.8-6-9.4-8.8-14.3h-0.3c-2.7,4.9-5.4,9.4-8.7,14.3l-11.9,18.6h-16.5l29.2-42l-27.9-40.3
	L1163.2,265.2z"/>
<path class="st2" d="M1292.7,327.8c-0.1,6.6,0.3,13.2,1.2,19.7h-13.4l-1.2-10.4h-0.5c-4.6,6.5-13.4,12.2-25.2,12.2
	c-16.7,0-25.2-11.7-25.2-23.6c0-19.9,17.7-30.8,49.5-30.6v-1.7c0-6.6-1.9-19-18.7-18.9c-7.8,0-15.8,2.2-21.6,6.1l-3.4-10
	c6.8-4.2,16.8-7.1,27.2-7.1c25.2,0,31.3,17.2,31.3,33.5V327.8z M1278.3,305.5c-16.3-0.3-34.8,2.5-34.8,18.5
	c0,9.9,6.5,14.3,13.9,14.3c10.9,0,17.8-6.8,20.2-13.8c0.5-1.5,0.7-3.1,0.7-4.8V305.5z"/>
</svg>
